HIERARCHY
ROOT hip
{
	OFFSET 0.000000 0.000000 0.000000 
	CHANNELS 6 Xposition Yposition Zposition Xrotation Zrotation Yrotation
	JOINT abdomen
	{
		OFFSET 0.000000 3.402643 0.000000 
		CHANNELS 3 Xrotation Zrotation Yrotation
		JOINT chest
		{
			OFFSET 0.000000 8.438565 -0.680529 
			CHANNELS 3 Xrotation Zrotation Yrotation
			JOINT neck
			{
				OFFSET 0.000000 10.207942 -0.272212 
				CHANNELS 3 Xrotation Zrotation Yrotation
				JOINT head
				{
					OFFSET 0.000000 3.130431 0.000000 
					CHANNELS 3 Xrotation Zrotation Yrotation
					End Site
					{
						OFFSET 0.000000 3.130435 0.000000 
					}
				}
			}
			JOINT lCollar
			{
				OFFSET 3.470700 6.669187 -0.816635 
				CHANNELS 3 Yrotation Zrotation Xrotation
				JOINT lShldr
				{
					OFFSET 3.198488 0.000000 0.000000 
					CHANNELS 3 Zrotation Yrotation Xrotation
					JOINT lForeArm
					{
						OFFSET 10.139888 0.000000 0.000000 
						CHANNELS 3 Yrotation Zrotation Xrotation
						JOINT lHand
						{
							OFFSET 8.370511 0.000000 0.000000 
							CHANNELS 3 Zrotation Yrotation Xrotation
							End Site
							{
								OFFSET 4.083176 0.000000 0.000000 
							}
						}
					}
				}
			}
			JOINT rCollar
			{
				OFFSET -3.470700 6.669187 -0.816635 
				CHANNELS 3 Yrotation Zrotation Xrotation
				JOINT rShldr
				{
					OFFSET -3.198488 0.000000 0.000000 
					CHANNELS 3 Zrotation Yrotation Xrotation
					JOINT rForeArm
					{
						OFFSET -10.139888 0.000000 0.000000 
						CHANNELS 3 Yrotation Zrotation Xrotation
						JOINT rHand
						{
							OFFSET -8.370511 0.000000 0.000000 
							CHANNELS 3 Zrotation Yrotation Xrotation
							End Site
							{
								OFFSET -4.083176 0.000000 0.000000 
							}
						}
					}
				}
			}
		}
	}
	JOINT lThigh
	{
		OFFSET 5.308129 -1.633274 1.361059 
		CHANNELS 3 Xrotation Zrotation Yrotation
		JOINT lShin
		{
			OFFSET -2.041588 -20.007561 0.000000 
			CHANNELS 3 Xrotation Zrotation Yrotation
			JOINT lFoot
			{
				OFFSET 0.000000 -19.190928 -1.224953 
				CHANNELS 3 Xrotation Yrotation Zrotation
				End Site
				{
					OFFSET 0.000000 -2.449906 4.627600 
				}
			}
		}
	}
	JOINT rThigh
	{
		OFFSET -5.308129 -1.633274 1.361059 
		CHANNELS 3 Xrotation Zrotation Yrotation
		JOINT rShin
		{
			OFFSET 2.041588 -20.007561 0.000000 
			CHANNELS 3 Xrotation Zrotation Yrotation
			JOINT rFoot
			{
				OFFSET 0.000000 -19.190928 -1.224953 
				CHANNELS 3 Xrotation Yrotation Zrotation
				End Site
				{
					OFFSET 0.000000 -2.449906 4.627600 
				}
			}
		}
	}
}
MOTION
Frames: 13
Frame Time: 0.033333
-58.976444 31.451391 59.541615 -10.585937 -3.642578 -36.787735 28.984673 -14.740119 -8.234797 -24.814453 7.031250 8.389868 51.063168 8.107644 2.471410 -81.396484 -27.607420 8.906250 2.000000 -2.000000 0.000000 -37.802734 18.212891 -45.895386 -103.955399 0.798458 -2.800686 20.861048 31.829193 9.482448 -2.000000 2.000000 0.000000 94.443359 -32.656250 -71.079491 109.556183 -1.167388 -3.017451 -29.691771 -31.270447 -4.963104 -16.749350 21.674231 -18.014576 89.436386 -0.341707 -5.000071 59.310345 16.869858 -37.370937 -25.290705 -1.406482 16.057898 98.936554 -1.749086 4.718406 88.432480 -9.276441 19.098185 
-60.319454 29.570175 60.649719 -3.007812 1.044922 -39.257633 29.247444 -15.203127 -6.308069 -26.923828 7.441407 8.681642 51.063168 8.107644 2.471410 -91.806641 -21.884766 12.255859 2.000000 -2.000000 0.000000 -41.923824 11.757813 -29.578083 -91.664490 0.478575 -2.919024 26.849426 34.219440 3.942808 -2.000000 2.000000 0.000000 88.798828 -25.478514 -63.291012 103.218697 -0.913128 -3.354600 -29.222198 -32.370655 -4.901020 -21.742670 23.463985 -18.044384 89.752556 -0.342102 -5.178482 57.073662 17.290403 -33.299713 -32.211117 -3.506686 15.277689 101.725098 -1.798653 4.844819 86.190422 -12.051403 9.891493 
-61.087952 28.594444 61.422470 5.839844 6.630860 -41.668797 30.611166 -15.565815 -3.844748 -30.478521 8.037110 8.369141 51.063168 8.107644 2.471410 -100.664063 -15.175778 14.069710 2.000000 -2.000000 0.000000 -47.421875 3.974609 -15.438779 -80.262367 -0.308996 -2.667938 32.663448 36.649189 0.083061 -2.000000 2.000000 0.000000 80.625000 -22.568361 -53.451012 96.026276 -0.446105 -3.141885 -30.527592 -34.686256 -2.396918 -27.770618 25.213636 -17.830919 89.747673 -0.175738 -5.143550 54.321026 17.113993 -28.416792 -39.657234 -3.847805 15.516046 102.758774 -2.287030 4.655235 81.984665 -13.378519 4.279730 
-61.490643 28.935234 61.945057 13.837891 12.119142 -42.204979 32.296566 -15.244246 -2.583870 -32.958984 8.417969 7.832032 51.063168 8.107644 2.471410 -104.111320 -9.902343 13.924103 2.000000 -2.000000 0.000000 -51.884766 -3.378906 -7.382812 -71.475471 -0.801548 -2.727421 36.364510 39.043056 -1.706268 -2.000000 2.000000 0.000000 70.263672 -17.343750 -40.471657 88.142769 0.045473 -3.015746 -33.468575 -37.076290 2.309294 -33.652443 27.125189 -17.473057 89.404922 -0.185546 -5.165319 51.586044 16.377480 -24.144735 -46.964386 -3.215212 16.992573 102.432709 -2.042852 4.742444 76.815941 -14.280176 1.282454 
-61.769173 29.414186 62.421349 20.429688 17.011719 -39.977612 34.615147 -13.523659 -3.117942 -32.958984 8.066406 6.972657 51.063168 8.107644 2.471410 -102.480469 -5.273437 13.172931 2.000000 -2.000000 0.000000 -51.181641 -11.708984 -10.177762 -66.569443 -0.979429 -2.589817 37.719448 40.500160 -0.359328 -2.000000 2.000000 0.000000 60.302734 -6.601562 -28.956202 80.933815 0.148766 -2.941324 -36.786045 -39.214622 7.901254 -38.611763 28.319750 -16.610294 88.352463 -0.283454 -5.158745 49.756496 15.795251 -21.398710 -52.644474 -2.715511 17.744429 101.206398 -1.935417 4.456739 72.566856 -14.447186 1.136075 
-62.165039 30.010481 63.055134 26.748047 21.406250 -35.924168 37.234749 -10.951612 -4.474530 -31.728518 7.519532 5.761718 51.063168 8.107644 2.471410 -98.232422 -0.820312 12.792970 2.000000 -2.000000 0.000000 -44.423832 -20.800781 -21.425781 -64.467728 -1.385497 -2.507525 37.292339 41.599033 4.224491 -2.000000 2.000000 0.000000 52.285156 6.777344 -23.984375 75.471611 0.337786 -3.165122 -38.963406 -41.534401 13.068469 -43.026772 28.329853 -15.713829 86.446121 -0.604897 -5.172626 48.736542 15.552385 -21.623697 -56.495556 -3.400815 17.380785 99.982857 -1.827460 4.883162 69.368050 -15.106596 4.585024 
-62.643993 30.688002 63.842484 33.349609 25.000002 -31.562498 39.232594 -8.811403 -5.052767 -30.664066 7.509766 5.205079 51.063168 8.107644 2.471410 -92.167969 1.015625 11.748219 2.000000 -2.000000 0.000000 -33.007816 -28.222660 -35.722656 -63.750336 -1.112067 -2.347420 36.231594 42.518745 9.283295 -2.000000 2.000000 0.000000 42.041016 16.064453 -30.749249 73.727547 0.374693 -2.957590 -39.227402 -44.380409 18.035728 -46.512836 27.213579 -14.378955 83.039452 -0.198395 -4.623517 47.346199 16.450699 -23.426220 -59.636574 -4.980705 16.283804 98.198441 -1.866395 4.732462 67.197899 -15.912997 10.344172 
-63.530396 30.708605 65.332581 40.000004 27.861328 -27.934891 40.897583 -7.795462 -4.391726 -30.468750 8.564453 5.724111 51.063168 8.107644 2.471410 -85.722656 0.107422 8.515624 2.000000 -2.000000 0.000000 -22.656250 -33.144531 -47.534637 -63.398746 -1.141315 -2.345718 35.181091 43.869896 14.010976 -2.000000 2.000000 0.000000 28.681641 16.259766 -44.256390 74.594818 0.214753 -2.898394 -37.620705 -47.546944 22.397173 -48.840328 26.804287 -12.516316 79.019508 -0.731039 -4.806683 45.615967 17.730829 -24.772202 -61.642956 -7.003304 14.755391 96.123451 -1.475212 4.699768 64.235619 -17.371372 15.611403 
-65.028938 30.966309 67.710571 46.787109 30.244143 -25.161097 41.935406 -7.145564 -3.091898 -30.263674 10.136719 6.796677 51.063168 8.107644 2.471410 -81.806641 -1.347656 5.263672 2.000000 -2.000000 0.000000 -16.972656 -34.150391 -55.498043 -63.059368 -1.351717 -2.431263 33.779381 46.666790 18.924421 -2.000000 2.000000 0.000000 17.597656 11.640069 -55.338745 75.641945 0.004784 -2.988765 -38.728676 -49.408283 26.712786 -48.829914 27.506590 -8.863251 73.635223 -1.746029 -4.996805 43.436028 19.179121 -25.285337 -62.200066 -8.877820 13.261792 93.484879 -1.220948 4.955877 61.322403 -19.225540 19.439280 
-66.743866 30.990721 70.373230 54.013672 32.148441 -22.406912 42.633957 -6.861317 -1.845932 -29.160158 11.523438 7.880859 51.063168 8.107644 2.471410 -83.984375 -1.708984 4.648147 2.000000 -2.000000 0.000000 -14.541015 -30.732422 -60.874130 -63.938850 -1.323603 -2.452455 31.895573 50.016712 22.896652 -2.000000 2.000000 0.000000 7.744141 6.777344 -64.647285 74.938553 0.033467 -2.977327 -44.290443 -49.791092 31.549976 -47.069176 28.651857 -3.342569 67.481339 -1.968253 -4.708659 40.391113 19.820755 -24.041643 -60.635742 -10.400892 11.767179 90.160255 -1.103526 4.851471 56.257050 -20.582428 19.607761 
-68.553688 29.949610 73.171158 61.435551 33.955078 -19.584387 42.526871 -6.520031 -1.058445 -25.195313 11.962891 8.710939 51.063168 8.107644 2.471410 -90.761719 -0.615234 6.152344 2.000000 -2.000000 0.000000 -11.660155 -25.878906 -65.394890 -66.568069 -1.240392 -2.535522 31.798717 51.871498 24.062742 -2.000000 2.000000 0.000000 -0.927734 0.644531 -73.710831 74.411484 0.063279 -2.985381 -51.598625 -48.243576 35.670650 -43.914207 29.852236 2.588236 60.651764 -2.690529 -4.571078 37.803509 20.026142 -22.435862 -56.963787 -11.758048 10.824288 86.308258 -0.506967 4.936734 49.963036 -22.653120 18.240135 
-70.337128 28.717684 75.954979 68.906250 35.312496 -16.552736 41.745804 -6.396812 -0.552180 -20.351563 11.923828 9.384767 51.063168 8.107644 2.471410 -97.460938 1.025391 7.744140 2.000000 -2.000000 0.000000 -7.509766 -21.035158 -67.949211 -72.363663 -1.025215 -2.704668 37.191147 50.171890 20.208149 -2.000000 2.000000 0.000000 -1.171875 -1.748047 -78.183891 77.400581 -0.061769 -3.021949 -55.479618 -45.369095 35.663616 -41.507652 30.590048 8.068898 54.841675 -3.295210 -4.239882 34.456928 19.675213 -20.716429 -52.823364 -12.694861 9.005766 82.168129 0.087760 4.817373 43.893272 -23.709312 15.720845 
-71.972794 28.771839 78.575516 76.230469 36.298828 -13.822345 40.605698 -6.131974 0.048884 -15.673827 11.845704 9.855520 51.063168 8.107644 2.471410 -100.312500 0.849611 8.222677 2.000000 -2.000000 0.000000 -4.482422 -16.064455 -69.501953 -80.272034 -0.552727 -2.653756 44.022564 47.284252 13.507873 -2.000000 2.000000 0.000000 2.031250 -6.474609 -84.991333 85.847305 -0.072647 -3.003022 -55.607105 -40.990204 31.710180 -41.127766 30.853600 12.868379 49.954540 -3.518991 -4.057609 30.150818 19.613077 -19.679832 -50.672451 -13.300521 7.339154 78.630890 0.380945 4.464909 39.197346 -24.224152 12.959014 
